HIERARCHY
ROOT Hips
{
	OFFSET 0.000000 0.000000 0.000000
	CHANNELS 6 Xposition Yposition Zposition Zrotation Yrotation Xrotation 
	JOINT LeftUpLeg_virtual
	{
		OFFSET 0.000000 0.000000 0.000000
		CHANNELS 3 Zrotation Yrotation Xrotation
		JOINT LeftUpLeg
		{
			OFFSET 10.205400 -3.823500 0.155100
			CHANNELS 3 Zrotation Yrotation Xrotation
			JOINT LeftLeg
			{
				OFFSET 0.708757 -12.982077 0.567790
				CHANNELS 3 Zrotation Yrotation Xrotation
				JOINT LeftFoot
				{
					OFFSET -0.708756 -10.717838 -2.184338
					CHANNELS 3 Zrotation Yrotation Xrotation
					JOINT LeftToeBase
					{
						OFFSET 0.108149 -7.191104 7.560241
						CHANNELS 3 Zrotation Yrotation Xrotation
						End Site
						{
							OFFSET 0.000000 0.000000 0.000000
						}
					}
				}
			}
		}
	}
	JOINT RightUpLeg_virtual
	{
		OFFSET 0.000000 0.000000 0.000000
		CHANNELS 3 Zrotation Yrotation Xrotation
		JOINT RightUpLeg
		{
			OFFSET -10.205400 -3.823500 0.005500
			CHANNELS 3 Zrotation Yrotation Xrotation
			JOINT RightLeg
			{
				OFFSET -0.708756 -12.982134 0.610632
				CHANNELS 3 Zrotation Yrotation Xrotation
				JOINT RightFoot
				{
					OFFSET 0.708754 -10.717769 -1.945823
					CHANNELS 3 Zrotation Yrotation Xrotation
					JOINT RightToeBase
					{
						OFFSET -0.108140 -7.191069 7.372968
						CHANNELS 3 Zrotation Yrotation Xrotation
						End Site
						{
							OFFSET 0.000000 0.000000 0.000000
						}
					}
				}
			}
		}
	}
	JOINT Spine_virtual
	{
		OFFSET 0.000000 0.000000 0.000000
		CHANNELS 3 Zrotation Yrotation Xrotation
		JOINT Spine
		{
			OFFSET 0.000000 6.876099 0.125700
			CHANNELS 3 Zrotation Yrotation Xrotation
			JOINT Spine1
			{
				OFFSET 0.000000 8.022060 0.146608
				CHANNELS 3 Zrotation Yrotation Xrotation
				JOINT Spine2
				{
					OFFSET 0.000000 9.168068 0.167552
					CHANNELS 3 Zrotation Yrotation Xrotation
					JOINT Neck_virtual
					{
						OFFSET 0.000000 0.000000 0.000000
						CHANNELS 3 Zrotation Yrotation Xrotation
						JOINT Neck
						{
							OFFSET 0.000000 10.314075 0.188496
							CHANNELS 3 Zrotation Yrotation Xrotation
							JOINT Head
							{
								OFFSET 0.000000 7.643700 -2.377400
								CHANNELS 3 Zrotation Yrotation Xrotation
								End Site
								{
									OFFSET 0.000000 0.000000 0.000000
								}
							}
						}
					}
					JOINT LeftShoulder_virtual
					{
						OFFSET 0.000000 0.000000 0.000000
						CHANNELS 3 Zrotation Yrotation Xrotation
						JOINT LeftShoulder
						{
							OFFSET 4.392200 8.824978 0.174984
							CHANNELS 3 Zrotation Yrotation Xrotation
							JOINT LeftArm
							{
								OFFSET 8.771219 -2.981674 -0.026999
								CHANNELS 3 Zrotation Yrotation Xrotation
								JOINT LeftForeArm
								{
									OFFSET 8.512804 0.000000 -0.000000
									CHANNELS 3 Zrotation Yrotation Xrotation
									JOINT LeftHand
									{
										OFFSET 18.484802 0.000000 -0.000000
										CHANNELS 3 Zrotation Yrotation Xrotation
										End Site
										{
											OFFSET 0.000000 0.000000 0.000000
										}
									}
								}
							}
						}
					}
					JOINT RightShoulder_virtual
					{
						OFFSET 0.000000 0.000000 0.000000
						CHANNELS 3 Zrotation Yrotation Xrotation
						JOINT RightShoulder
						{
							OFFSET -4.392200 8.824993 0.141379
							CHANNELS 3 Zrotation Yrotation Xrotation
							JOINT RightArm
							{
								OFFSET -8.771282 -2.981682 -0.094208
								CHANNELS 3 Zrotation Yrotation Xrotation
								JOINT RightForeArm
								{
									OFFSET -8.494598 0.000000 0.000000
									CHANNELS 3 Zrotation Yrotation Xrotation
									JOINT RightHand
									{
										OFFSET -18.483803 0.000000 0.000001
										CHANNELS 3 Zrotation Yrotation Xrotation
										End Site
										{
											OFFSET 0.000000 0.000000 0.000000
										}
									}
								}
							}
						}
					}
				}
			}
		}
	}
}
MOTION
Frames: 14
Frame Time: 0.033333
1.913619 36.072197 -1.197858 179.944161 -1.317067 179.890790 0.518798 -2.253466 14.078908 -1.234739 -7.360490 -14.017014 4.863569 4.077844 12.441020 -1.680018 -0.342246 6.921606 0.000000 0.000000 0.000000 5.036246 -1.706879 14.314458 -4.167398 6.236777 -14.709248 -4.175457 3.267979 16.877715 12.755843 2.319225 0.374255 0.000000 0.000000 0.000000 2.945046 0.620365 3.124259 1.259448 -0.617108 -12.148377 0.018754 -3.071023 5.374129 0.032006 0.008741 -0.045210 -0.428405 -0.838610 7.538405 -3.905350 3.523355 14.003794 0.000000 0.000000 0.000000 1.222062 -0.247753 4.797738 -18.363211 -7.525178 1.639064 -47.907886 13.424341 3.603911 2.748113 -34.990356 2.048738 0.000000 0.000000 0.000000 -2.874546 0.816138 4.230629 27.819711 3.708241 5.747010 43.364687 -17.922876 7.926125 -2.263676 30.116616 -3.105234 0.000000 0.000000 0.000000 
1.887518 36.065716 -1.212014 179.953546 -1.323186 179.832952 0.525260 -2.164066 13.881535 -1.319838 -7.203515 -13.969485 4.965162 4.149924 12.343485 -1.624164 -0.290123 6.983841 0.000000 0.000000 0.000000 5.100638 -1.784084 14.249506 -4.052930 6.306991 -14.713414 -3.949351 2.961393 16.859697 13.032239 2.633266 -0.013881 0.000000 0.000000 0.000000 2.877400 0.575910 3.210856 1.273510 -0.608790 -12.168543 0.032532 -3.105636 5.396941 0.023006 -0.015596 0.001707 -0.379740 -0.858971 7.537094 -3.874098 3.690297 13.994010 0.000000 0.000000 0.000000 1.238140 -0.134660 4.859338 -18.352201 -7.479348 1.635533 -48.032226 13.889503 3.709920 2.715950 -34.649434 2.042586 0.000000 0.000000 0.000000 -2.877276 0.861144 4.247300 27.818029 3.713900 5.764609 43.406412 -18.113877 7.932917 -2.317032 30.074686 -3.133202 0.000000 0.000000 0.000000 
1.853763 36.065407 -1.230392 179.948328 -1.316611 179.839304 0.497728 -2.288162 13.733009 -1.476075 -7.158987 -13.769902 5.087187 4.220864 12.380719 -1.636260 -0.298479 6.997970 0.000000 0.000000 0.000000 5.098634 -1.829672 14.129440 -4.121331 6.338261 -14.621038 -3.933639 3.015538 17.035330 12.964329 2.690636 -0.040465 0.000000 0.000000 0.000000 2.859324 0.499283 3.139623 1.303423 -0.484092 -12.139140 0.032584 -3.079921 5.427558 -0.000850 0.003952 -0.045242 -0.361023 -0.999405 7.645010 -3.821786 3.674200 14.100521 0.000000 0.000000 0.000000 1.250795 -0.257451 4.956474 -18.313364 -7.244356 1.639166 -48.300315 14.512955 3.587069 2.658692 -34.253190 1.985081 0.000000 0.000000 0.000000 -2.859564 0.820793 4.315162 27.790025 3.727592 5.735205 43.581771 -18.338952 7.807251 -2.398189 29.913763 -3.180493 0.000000 0.000000 0.000000 
1.821413 36.068584 -1.255427 179.917264 -1.284710 179.861229 0.451363 -2.433548 13.610536 -1.682002 -7.175116 -13.605324 5.327713 4.362828 12.427862 -1.690381 -0.318884 7.085187 0.000000 0.000000 0.000000 5.115494 -1.844030 13.996415 -4.189728 6.366179 -14.567212 -3.887735 3.117624 17.203300 12.862159 2.808144 -0.098108 0.000000 0.000000 0.000000 2.864848 0.379591 3.012348 1.310057 -0.356334 -12.159842 -0.005674 -3.080626 5.503451 -0.006388 -0.008718 0.014117 -0.450574 -0.912881 7.694821 -3.770652 3.605380 14.296821 0.000000 0.000000 0.000000 1.211404 -0.133352 5.006362 -18.260072 -7.113841 1.640440 -48.648699 14.975024 3.278611 2.579730 -33.879869 1.856266 0.000000 0.000000 0.000000 -2.870363 0.943551 4.305957 27.780041 3.686262 5.751352 43.847120 -18.506164 7.398662 -2.374412 29.655940 -3.097239 0.000000 0.000000 0.000000 
1.798433 36.074890 -1.284600 179.906691 -1.260628 179.920420 0.406382 -2.616786 13.548684 -1.891105 -7.205892 -13.487416 5.676312 4.391631 12.586349 -1.719698 -0.288009 7.136646 0.000000 0.000000 0.000000 5.114415 -1.871728 13.847751 -4.271195 6.412521 -14.527652 -3.868059 3.073480 17.239254 12.710287 2.956574 -0.070140 0.000000 0.000000 0.000000 2.873070 0.451654 2.763119 1.309592 -0.300841 -12.135702 -0.018650 -3.136188 5.563746 -0.004472 -0.068259 0.027033 -0.458254 -0.923062 7.745989 -3.612041 3.575017 14.486485 0.000000 0.000000 0.000000 1.206511 -0.142516 5.013189 -18.157262 -6.989662 1.641922 -48.951180 15.086874 2.810361 2.480405 -33.493100 1.640197 0.000000 0.000000 0.000000 -2.903124 0.831324 4.374615 27.765479 3.786559 5.665103 44.048375 -18.603613 7.051147 -2.344228 29.336421 -3.023056 0.000000 0.000000 0.000000 
1.787577 36.077652 -1.307102 179.963586 -0.946206 179.940992 0.407589 -2.665546 13.538899 -2.122476 -7.246175 -13.434518 6.132222 4.406009 12.763259 -1.743227 -0.218898 7.053900 0.000000 0.000000 0.000000 5.121690 -1.844808 13.757295 -4.324270 6.527060 -14.433834 -3.844279 3.187698 17.211894 12.508618 3.100958 0.031818 0.000000 0.000000 0.000000 2.905012 0.335681 2.515008 1.271161 -0.142189 -12.102075 0.008558 -3.060616 5.610407 0.017535 0.003554 -0.001097 -0.469299 -0.928529 7.879164 -3.387091 3.541397 14.706917 0.000000 0.000000 0.000000 1.137289 -0.159018 5.080615 -18.048783 -6.964054 1.640323 -49.135875 14.749674 2.327334 2.307308 -33.037523 1.437411 0.000000 0.000000 0.000000 -2.984065 0.835452 4.414474 27.786663 3.796103 5.615802 44.102057 -18.450545 6.893666 -2.421425 29.096684 -3.032821 0.000000 0.000000 0.000000 
1.785632 36.082413 -1.334890 179.962576 -0.608299 179.946552 0.285071 -2.765430 13.528631 -2.293736 -7.183072 -13.362498 6.639169 4.452715 13.193199 -1.848481 -0.194998 6.749734 0.000000 0.000000 0.000000 5.069974 -1.863252 13.596665 -4.332525 6.648543 -14.349691 -3.793031 3.507195 17.096921 12.280801 3.253584 0.159388 0.000000 0.000000 0.000000 2.919106 0.327613 2.192933 1.126927 -0.100036 -11.998153 -0.010055 -3.027317 5.651556 -0.022518 0.018901 -0.025091 -0.399568 -1.017931 8.019853 -3.155639 3.492497 14.885240 0.000000 0.000000 0.000000 1.149352 -0.136446 5.142483 -17.898123 -7.062987 1.709555 -49.089751 13.878657 1.958995 2.054275 -32.544574 1.273668 0.000000 0.000000 0.000000 -2.949610 0.814673 4.510456 27.842452 3.930120 5.462485 43.950068 -18.074407 6.842475 -2.358721 28.913861 -2.934476 0.000000 0.000000 0.000000 
1.802682 36.082207 -1.345472 179.961660 -0.283947 179.963095 0.187428 -3.023273 13.425218 -2.555019 -6.936942 -13.235200 7.142105 4.099388 13.749960 -1.929766 -0.128580 6.411455 0.000000 0.000000 0.000000 4.975863 -2.022937 13.375375 -4.251745 6.794769 -14.284627 -3.727525 3.962035 17.057769 12.006873 3.385514 0.317302 0.000000 0.000000 0.000000 2.934682 0.168204 1.806727 0.911536 -0.082347 -11.812249 0.012486 -2.937927 5.684337 0.027321 0.071223 -0.011652 -0.436404 -0.954017 8.089388 -2.989516 3.418716 15.012920 0.000000 0.000000 0.000000 1.103866 -0.165425 5.157466 -17.701690 -7.389595 1.807231 -48.635571 12.450199 2.236857 1.925340 -32.140562 0.992141 0.000000 0.000000 0.000000 -3.018056 0.781644 4.514240 27.915019 4.081104 5.283869 43.558087 -17.600901 7.052048 -2.291540 28.929181 -2.804820 0.000000 0.000000 0.000000 
1.844441 36.081993 -1.318099 179.993776 0.032330 179.945773 0.095285 -3.262957 13.206223 -2.692690 -6.667988 -13.177835 7.727630 3.960826 14.522080 -2.130749 -0.159598 5.965995 0.000000 0.000000 0.000000 4.920684 -2.220818 13.053002 -4.065014 7.089165 -14.167598 -3.703984 4.410318 16.958603 11.684888 3.475397 0.507215 0.000000 0.000000 0.000000 3.026581 0.089294 1.434064 0.635692 -0.161377 -11.562905 -0.018612 -2.909928 5.707183 0.019846 0.056593 -0.022333 -0.486839 -0.867882 8.157967 -2.935108 3.310549 15.061530 0.000000 0.000000 0.000000 1.093032 -0.153226 5.147187 -17.480717 -7.845154 1.841273 -47.821180 10.587746 2.591696 1.596767 -31.990120 0.863055 0.000000 0.000000 0.000000 -3.000228 0.802052 4.570452 28.055637 4.347762 5.157405 43.052205 -16.811616 7.341753 -2.106732 29.060013 -2.617899 0.000000 0.000000 0.000000 
1.921843 36.078377 -1.256323 179.957945 0.511523 -179.954584 -0.068680 -3.465542 12.902577 -2.768919 -6.427380 -13.152400 8.291305 4.025819 15.348443 -2.340356 -0.185412 5.611616 0.000000 0.000000 0.000000 4.806948 -2.255895 12.617398 -3.827374 7.401263 -14.100056 -3.679311 4.676517 16.964306 11.395547 3.579401 0.743894 0.000000 0.000000 0.000000 3.029384 0.161599 1.062986 0.309170 -0.296325 -11.301739 -0.037626 -2.953056 5.698338 0.001815 -0.026726 0.035959 -0.490617 -0.843718 8.125458 -2.876716 3.229579 15.009614 0.000000 0.000000 0.000000 1.100782 0.045892 5.073284 -17.270212 -8.229543 1.776327 -46.778221 8.267411 3.087885 1.234278 -32.091432 0.759718 0.000000 0.000000 0.000000 -3.006209 0.980299 4.544576 28.245769 4.621798 5.010827 42.432578 -16.031342 7.768471 -2.004957 29.376650 -2.523565 0.000000 0.000000 0.000000 
2.025875 36.073521 -1.166757 179.998393 1.045886 -179.940869 -0.091644 -3.625928 12.615130 -2.799967 -6.355364 -13.089178 8.817537 3.945139 16.092966 -2.569823 -0.209920 5.308845 0.000000 0.000000 0.000000 4.767367 -2.310490 12.145203 -3.507524 7.853884 -13.947990 -3.671743 4.948196 16.893716 11.094573 3.644320 1.012514 0.000000 0.000000 0.000000 3.125492 0.107645 0.813939 -0.013060 -0.325663 -10.963081 -0.075717 -2.871237 5.662416 -0.006471 -0.020467 0.038737 -0.562442 -0.708963 8.087758 -2.999266 3.125656 14.934414 0.000000 0.000000 0.000000 1.057551 0.123262 4.991933 -17.093110 -8.676120 1.810063 -45.699778 5.874764 3.147455 0.943238 -32.650268 0.554364 0.000000 0.000000 0.000000 -3.028832 1.072365 4.510157 28.453660 4.879154 4.751498 41.838686 -15.372118 8.214418 -1.889499 29.938293 -2.433345 0.000000 0.000000 0.000000 
2.158440 36.075787 -1.051969 179.999623 1.546581 -179.948956 -0.132601 -3.713427 12.300866 -2.778193 -6.232613 -13.026450 9.300994 3.749852 16.715524 -2.825831 -0.239535 5.197794 0.000000 0.000000 0.000000 4.724405 -2.299228 11.593684 -3.171085 8.319621 -13.687859 -3.697716 5.011606 16.793828 10.822062 3.689578 1.311751 0.000000 0.000000 0.000000 3.220960 -0.061135 0.585824 -0.327398 -0.227344 -10.626883 -0.168869 -2.692588 5.568499 0.007053 0.068808 0.036953 -0.597044 -0.642050 7.967525 -3.258471 2.971253 14.835958 0.000000 0.000000 0.000000 1.007717 0.071105 4.861308 -16.956503 -9.056669 1.905011 -44.758663 3.723897 2.311418 0.704766 -33.719862 0.253999 0.000000 0.000000 0.000000 -3.056082 1.098813 4.347021 28.633113 4.993976 4.514236 41.382060 -14.873343 8.346084 -1.773478 30.679181 -2.389900 0.000000 0.000000 0.000000 
2.299197 36.090157 -0.946859 179.973299 2.020994 -179.901582 -0.190993 -3.778600 11.903400 -2.693902 -6.160467 -12.918252 9.701894 3.581978 17.141097 -3.070936 -0.243145 5.263134 0.000000 0.000000 0.000000 4.693890 -2.226123 10.951930 -2.843941 8.755377 -13.263982 -3.750936 4.965356 16.563777 10.568212 3.705051 1.628557 0.000000 0.000000 0.000000 3.271408 -0.001123 0.312985 -0.660693 -0.263903 -10.322677 -0.156801 -2.701539 5.454783 -0.046493 -0.020788 0.007089 -0.667247 -0.382536 7.841502 -3.603397 2.902238 14.780977 0.000000 0.000000 0.000000 0.926582 0.241600 4.696332 -16.758873 -9.050613 1.857876 -44.013018 2.025034 0.808624 0.640917 -35.132543 -0.207150 0.000000 0.000000 0.000000 -3.138239 1.238523 4.262130 28.746996 5.170355 4.180512 41.136778 -14.436510 8.323880 -1.615093 31.409970 -2.325377 0.000000 0.000000 0.000000 
2.435776 36.118839 -0.849403 179.970581 2.288042 -179.903699 -0.227709 -3.724019 11.465303 -2.603470 -6.163440 -12.738702 10.121937 3.408417 17.517287 -3.357991 -0.354390 5.472280 0.000000 0.000000 0.000000 4.754097 -2.035417 10.323898 -2.519849 9.127543 -12.571891 -3.839114 4.840857 16.227104 10.264391 3.662584 1.904059 0.000000 0.000000 0.000000 3.329661 0.045382 0.049588 -0.842755 -0.170667 -9.998529 -0.312017 -2.557907 5.306049 -0.011944 0.042095 0.039654 -0.700505 -0.360668 7.561530 -4.093957 2.862092 14.797306 0.000000 0.000000 0.000000 0.894439 0.255368 4.509733 -16.545771 -9.049957 1.640635 -43.556581 0.756526 -1.325124 0.555112 -36.770733 -0.629833 0.000000 0.000000 0.000000 -3.213499 1.246456 3.930664 28.778828 5.068982 3.985187 41.095407 -14.137004 8.166174 -1.515767 32.123179 -2.311148 0.000000 0.000000 0.000000 
